# xmcd
#
# Track frame offsets:
# 150
# 29474
# 45904
# 67991
# 86227
# 106350
# 147242
#
# Disc length: 2424 seconds
#
#
# Revision: 0
# Processed by: cddbd v1.5.2PL0 Copyright (c) Steve Scherf et al.
# Submitted via: FreeRIP 2.943 
#
DISCID=58097607
DTITLE=hematovore - nokturnal grave decorator
DYEAR=2008
DGENRE=Instrumental Rock
TTITLE0=nokturnal grave decorator
TTITLE1=and black winds ...
TTITLE2=and...
TTITLE3=legions of batrachia
TTITLE4=fuck yeah, hammerhead shark
TTITLE5=here be dragons
TTITLE6=autopsy turvy
EXTD=yy
EXTT0=
EXTT1=
EXTT2=
EXTT3=
EXTT4=
EXTT5=
EXTT6=
PLAYORDER=
